<mxfile host="app.diagrams.net" agent="Mozilla/5.0 (Windows NT 10.0; Win64; x64) AppleWebKit/537.36 (KHTML, like Gecko) Chrome/124.0.0.0 Safari/537.36 SLBrowser/9.0.6.8151 SLBChan/109 SLBVPV/64-bit" version="28.2.7">
  <diagram name="第 1 页" id="xvbBEmGutV3KPqRcqt0p">
    <mxGraphModel dx="898" dy="627" grid="1" gridSize="10" guides="1" tooltips="1" connect="1" arrows="0" fold="1" page="1" pageScale="1" pageWidth="827" pageHeight="1169" math="0" shadow="0">
      <root>
        <mxCell id="0" />
        <mxCell id="1" parent="0" />
        <mxCell id="PlpLMEIJnBUzuaVJZpVh-45" style="edgeStyle=orthogonalEdgeStyle;rounded=0;orthogonalLoop=1;jettySize=auto;html=1;exitX=0.5;exitY=1;exitDx=0;exitDy=0;" parent="1" source="PlpLMEIJnBUzuaVJZpVh-21" target="PlpLMEIJnBUzuaVJZpVh-44" edge="1">
          <mxGeometry relative="1" as="geometry" />
        </mxCell>
        <mxCell id="PlpLMEIJnBUzuaVJZpVh-21" value="" style="rounded=0;whiteSpace=wrap;html=1;fillColor=#f5f5f5;fontColor=#333333;strokeColor=#666666;" parent="1" vertex="1">
          <mxGeometry x="40" y="10" width="750" height="720" as="geometry" />
        </mxCell>
        <mxCell id="PlpLMEIJnBUzuaVJZpVh-1" value="&lt;b&gt;&lt;font style=&quot;font-size: 15px;&quot;&gt;Box Diagram&amp;nbsp; ——&amp;nbsp; E-commerce platform&lt;/font&gt;&lt;/b&gt;" style="rounded=0;whiteSpace=wrap;html=1;fillColor=#d5e8d4;strokeColor=#82b366;" parent="1" vertex="1">
          <mxGeometry x="50" y="20" width="730" height="60" as="geometry" />
        </mxCell>
        <mxCell id="PlpLMEIJnBUzuaVJZpVh-5" style="edgeStyle=orthogonalEdgeStyle;rounded=0;orthogonalLoop=1;jettySize=auto;html=1;exitX=1;exitY=0.5;exitDx=0;exitDy=0;entryX=0;entryY=0.5;entryDx=0;entryDy=0;endArrow=none;endFill=0;" parent="1" source="PlpLMEIJnBUzuaVJZpVh-2" target="PlpLMEIJnBUzuaVJZpVh-3" edge="1">
          <mxGeometry relative="1" as="geometry" />
        </mxCell>
        <mxCell id="PlpLMEIJnBUzuaVJZpVh-14" style="edgeStyle=orthogonalEdgeStyle;rounded=0;orthogonalLoop=1;jettySize=auto;html=1;exitX=0.5;exitY=1;exitDx=0;exitDy=0;entryX=0.5;entryY=0;entryDx=0;entryDy=0;endArrow=none;endFill=0;" parent="1" source="PlpLMEIJnBUzuaVJZpVh-2" target="PlpLMEIJnBUzuaVJZpVh-7" edge="1">
          <mxGeometry relative="1" as="geometry" />
        </mxCell>
        <mxCell id="PlpLMEIJnBUzuaVJZpVh-2" value="Customer Domain" style="rounded=0;whiteSpace=wrap;html=1;fillColor=#dae8fc;strokeColor=#6c8ebf;" parent="1" vertex="1">
          <mxGeometry x="50" y="120" width="180" height="60" as="geometry" />
        </mxCell>
        <mxCell id="PlpLMEIJnBUzuaVJZpVh-6" style="edgeStyle=orthogonalEdgeStyle;rounded=0;orthogonalLoop=1;jettySize=auto;html=1;exitX=1;exitY=0.5;exitDx=0;exitDy=0;entryX=0;entryY=0.5;entryDx=0;entryDy=0;endArrow=none;endFill=0;" parent="1" source="PlpLMEIJnBUzuaVJZpVh-3" target="PlpLMEIJnBUzuaVJZpVh-4" edge="1">
          <mxGeometry relative="1" as="geometry" />
        </mxCell>
        <mxCell id="PlpLMEIJnBUzuaVJZpVh-10" style="edgeStyle=orthogonalEdgeStyle;rounded=0;orthogonalLoop=1;jettySize=auto;html=1;exitX=0.5;exitY=1;exitDx=0;exitDy=0;entryX=0.5;entryY=0;entryDx=0;entryDy=0;endArrow=none;endFill=0;" parent="1" source="PlpLMEIJnBUzuaVJZpVh-3" target="PlpLMEIJnBUzuaVJZpVh-8" edge="1">
          <mxGeometry relative="1" as="geometry" />
        </mxCell>
        <mxCell id="PlpLMEIJnBUzuaVJZpVh-3" value="Product Domain" style="rounded=0;whiteSpace=wrap;html=1;fillColor=#dae8fc;strokeColor=#6c8ebf;" parent="1" vertex="1">
          <mxGeometry x="324" y="120" width="180" height="60" as="geometry" />
        </mxCell>
        <mxCell id="PlpLMEIJnBUzuaVJZpVh-13" style="edgeStyle=orthogonalEdgeStyle;rounded=0;orthogonalLoop=1;jettySize=auto;html=1;exitX=0.5;exitY=1;exitDx=0;exitDy=0;entryX=0.5;entryY=0;entryDx=0;entryDy=0;endArrow=none;endFill=0;" parent="1" source="PlpLMEIJnBUzuaVJZpVh-4" target="PlpLMEIJnBUzuaVJZpVh-9" edge="1">
          <mxGeometry relative="1" as="geometry" />
        </mxCell>
        <mxCell id="PlpLMEIJnBUzuaVJZpVh-4" value="Transaction Domain" style="rounded=0;whiteSpace=wrap;html=1;fillColor=#dae8fc;strokeColor=#6c8ebf;" parent="1" vertex="1">
          <mxGeometry x="600" y="120" width="180" height="60" as="geometry" />
        </mxCell>
        <mxCell id="PlpLMEIJnBUzuaVJZpVh-18" style="edgeStyle=orthogonalEdgeStyle;rounded=0;orthogonalLoop=1;jettySize=auto;html=1;exitX=0.5;exitY=1;exitDx=0;exitDy=0;entryX=0.5;entryY=0;entryDx=0;entryDy=0;endArrow=none;endFill=0;" parent="1" source="PlpLMEIJnBUzuaVJZpVh-7" target="PlpLMEIJnBUzuaVJZpVh-15" edge="1">
          <mxGeometry relative="1" as="geometry" />
        </mxCell>
        <mxCell id="PlpLMEIJnBUzuaVJZpVh-7" value="User Management" style="rounded=0;whiteSpace=wrap;html=1;fillColor=#fff2cc;strokeColor=#d6b656;" parent="1" vertex="1">
          <mxGeometry x="50" y="230" width="180" height="60" as="geometry" />
        </mxCell>
        <mxCell id="PlpLMEIJnBUzuaVJZpVh-19" style="edgeStyle=orthogonalEdgeStyle;rounded=0;orthogonalLoop=1;jettySize=auto;html=1;exitX=0.5;exitY=1;exitDx=0;exitDy=0;entryX=0.5;entryY=0;entryDx=0;entryDy=0;endArrow=none;endFill=0;" parent="1" source="PlpLMEIJnBUzuaVJZpVh-8" target="PlpLMEIJnBUzuaVJZpVh-16" edge="1">
          <mxGeometry relative="1" as="geometry" />
        </mxCell>
        <mxCell id="PlpLMEIJnBUzuaVJZpVh-8" value="Product Management" style="rounded=0;whiteSpace=wrap;html=1;fillColor=#fff2cc;strokeColor=#d6b656;" parent="1" vertex="1">
          <mxGeometry x="324" y="230" width="180" height="60" as="geometry" />
        </mxCell>
        <mxCell id="PlpLMEIJnBUzuaVJZpVh-20" style="edgeStyle=orthogonalEdgeStyle;rounded=0;orthogonalLoop=1;jettySize=auto;html=1;exitX=0.5;exitY=1;exitDx=0;exitDy=0;entryX=0.5;entryY=0;entryDx=0;entryDy=0;endArrow=none;endFill=0;" parent="1" source="PlpLMEIJnBUzuaVJZpVh-9" target="PlpLMEIJnBUzuaVJZpVh-17" edge="1">
          <mxGeometry relative="1" as="geometry" />
        </mxCell>
        <mxCell id="PlpLMEIJnBUzuaVJZpVh-9" value="Order Management" style="rounded=0;whiteSpace=wrap;html=1;fillColor=#fff2cc;strokeColor=#d6b656;" parent="1" vertex="1">
          <mxGeometry x="600" y="230" width="180" height="60" as="geometry" />
        </mxCell>
        <mxCell id="PlpLMEIJnBUzuaVJZpVh-15" value="Identity Authentication" style="rounded=0;whiteSpace=wrap;html=1;fillColor=#fff2cc;strokeColor=#d6b656;" parent="1" vertex="1">
          <mxGeometry x="50" y="340" width="180" height="60" as="geometry" />
        </mxCell>
        <mxCell id="PlpLMEIJnBUzuaVJZpVh-16" value="Category Management" style="rounded=0;whiteSpace=wrap;html=1;fillColor=#fff2cc;strokeColor=#d6b656;" parent="1" vertex="1">
          <mxGeometry x="324" y="340" width="180" height="60" as="geometry" />
        </mxCell>
        <mxCell id="PlpLMEIJnBUzuaVJZpVh-17" value="Payment Processing" style="rounded=0;whiteSpace=wrap;html=1;fillColor=#fff2cc;strokeColor=#d6b656;" parent="1" vertex="1">
          <mxGeometry x="600" y="340" width="180" height="60" as="geometry" />
        </mxCell>
        <mxCell id="PlpLMEIJnBUzuaVJZpVh-22" value="" style="endArrow=none;html=1;rounded=0;strokeWidth=1;fillColor=#d5e8d4;strokeColor=light-dark(#000000, #446e2c);" parent="1" edge="1">
          <mxGeometry width="50" height="50" relative="1" as="geometry">
            <mxPoint x="40" y="100" as="sourcePoint" />
            <mxPoint x="790" y="100" as="targetPoint" />
          </mxGeometry>
        </mxCell>
        <mxCell id="PlpLMEIJnBUzuaVJZpVh-23" value="" style="endArrow=none;html=1;rounded=0;" parent="1" edge="1">
          <mxGeometry width="50" height="50" relative="1" as="geometry">
            <mxPoint x="40" y="430" as="sourcePoint" />
            <mxPoint x="790" y="430" as="targetPoint" />
          </mxGeometry>
        </mxCell>
        <mxCell id="PlpLMEIJnBUzuaVJZpVh-37" style="edgeStyle=orthogonalEdgeStyle;rounded=0;orthogonalLoop=1;jettySize=auto;html=1;exitX=0.5;exitY=1;exitDx=0;exitDy=0;entryX=0.5;entryY=0;entryDx=0;entryDy=0;endArrow=none;endFill=0;" parent="1" source="PlpLMEIJnBUzuaVJZpVh-24" target="PlpLMEIJnBUzuaVJZpVh-27" edge="1">
          <mxGeometry relative="1" as="geometry" />
        </mxCell>
        <mxCell id="PlpLMEIJnBUzuaVJZpVh-24" value="Market Domain" style="rounded=0;whiteSpace=wrap;html=1;fillColor=#dae8fc;strokeColor=#6c8ebf;" parent="1" vertex="1">
          <mxGeometry x="50" y="450" width="180" height="60" as="geometry" />
        </mxCell>
        <mxCell id="PlpLMEIJnBUzuaVJZpVh-36" style="edgeStyle=orthogonalEdgeStyle;rounded=0;orthogonalLoop=1;jettySize=auto;html=1;exitX=0;exitY=0.5;exitDx=0;exitDy=0;entryX=1;entryY=0.5;entryDx=0;entryDy=0;endArrow=none;endFill=0;" parent="1" source="PlpLMEIJnBUzuaVJZpVh-25" target="PlpLMEIJnBUzuaVJZpVh-24" edge="1">
          <mxGeometry relative="1" as="geometry" />
        </mxCell>
        <mxCell id="PlpLMEIJnBUzuaVJZpVh-38" style="edgeStyle=orthogonalEdgeStyle;rounded=0;orthogonalLoop=1;jettySize=auto;html=1;exitX=0.5;exitY=1;exitDx=0;exitDy=0;entryX=0.5;entryY=0;entryDx=0;entryDy=0;endArrow=none;endFill=0;" parent="1" source="PlpLMEIJnBUzuaVJZpVh-25" target="PlpLMEIJnBUzuaVJZpVh-28" edge="1">
          <mxGeometry relative="1" as="geometry" />
        </mxCell>
        <mxCell id="PlpLMEIJnBUzuaVJZpVh-25" value="Service Domain" style="rounded=0;whiteSpace=wrap;html=1;fillColor=#dae8fc;strokeColor=#6c8ebf;" parent="1" vertex="1">
          <mxGeometry x="325" y="450" width="180" height="60" as="geometry" />
        </mxCell>
        <mxCell id="PlpLMEIJnBUzuaVJZpVh-35" style="edgeStyle=orthogonalEdgeStyle;rounded=0;orthogonalLoop=1;jettySize=auto;html=1;exitX=0;exitY=0.5;exitDx=0;exitDy=0;entryX=1;entryY=0.5;entryDx=0;entryDy=0;endArrow=none;endFill=0;" parent="1" source="PlpLMEIJnBUzuaVJZpVh-26" target="PlpLMEIJnBUzuaVJZpVh-25" edge="1">
          <mxGeometry relative="1" as="geometry" />
        </mxCell>
        <mxCell id="PlpLMEIJnBUzuaVJZpVh-39" style="edgeStyle=orthogonalEdgeStyle;rounded=0;orthogonalLoop=1;jettySize=auto;html=1;exitX=0.5;exitY=1;exitDx=0;exitDy=0;entryX=0.5;entryY=0;entryDx=0;entryDy=0;endArrow=none;endFill=0;" parent="1" source="PlpLMEIJnBUzuaVJZpVh-26" target="PlpLMEIJnBUzuaVJZpVh-29" edge="1">
          <mxGeometry relative="1" as="geometry" />
        </mxCell>
        <mxCell id="PlpLMEIJnBUzuaVJZpVh-26" value="Data Domain" style="rounded=0;whiteSpace=wrap;html=1;fillColor=#dae8fc;strokeColor=#6c8ebf;" parent="1" vertex="1">
          <mxGeometry x="600" y="450" width="180" height="60" as="geometry" />
        </mxCell>
        <mxCell id="PlpLMEIJnBUzuaVJZpVh-43" style="edgeStyle=orthogonalEdgeStyle;rounded=0;orthogonalLoop=1;jettySize=auto;html=1;exitX=0.5;exitY=1;exitDx=0;exitDy=0;entryX=0.5;entryY=0;entryDx=0;entryDy=0;endArrow=none;endFill=0;" parent="1" source="PlpLMEIJnBUzuaVJZpVh-27" target="PlpLMEIJnBUzuaVJZpVh-30" edge="1">
          <mxGeometry relative="1" as="geometry" />
        </mxCell>
        <mxCell id="PlpLMEIJnBUzuaVJZpVh-27" value="Promotion Management" style="rounded=0;whiteSpace=wrap;html=1;fillColor=#fff2cc;strokeColor=#d6b656;" parent="1" vertex="1">
          <mxGeometry x="50" y="555" width="180" height="60" as="geometry" />
        </mxCell>
        <mxCell id="PlpLMEIJnBUzuaVJZpVh-41" style="edgeStyle=orthogonalEdgeStyle;rounded=0;orthogonalLoop=1;jettySize=auto;html=1;exitX=0.5;exitY=1;exitDx=0;exitDy=0;entryX=0.5;entryY=0;entryDx=0;entryDy=0;endArrow=none;endFill=0;" parent="1" source="PlpLMEIJnBUzuaVJZpVh-28" target="PlpLMEIJnBUzuaVJZpVh-31" edge="1">
          <mxGeometry relative="1" as="geometry" />
        </mxCell>
        <mxCell id="PlpLMEIJnBUzuaVJZpVh-28" value="Search Service" style="rounded=0;whiteSpace=wrap;html=1;fillColor=#fff2cc;strokeColor=#d6b656;" parent="1" vertex="1">
          <mxGeometry x="325" y="555" width="180" height="60" as="geometry" />
        </mxCell>
        <mxCell id="PlpLMEIJnBUzuaVJZpVh-42" style="edgeStyle=orthogonalEdgeStyle;rounded=0;orthogonalLoop=1;jettySize=auto;html=1;exitX=0.5;exitY=1;exitDx=0;exitDy=0;entryX=0.5;entryY=0;entryDx=0;entryDy=0;endArrow=none;endFill=0;" parent="1" source="PlpLMEIJnBUzuaVJZpVh-29" target="PlpLMEIJnBUzuaVJZpVh-32" edge="1">
          <mxGeometry relative="1" as="geometry" />
        </mxCell>
        <mxCell id="PlpLMEIJnBUzuaVJZpVh-29" value="User Data" style="rounded=0;whiteSpace=wrap;html=1;fillColor=#fff2cc;strokeColor=#d6b656;" parent="1" vertex="1">
          <mxGeometry x="600" y="555" width="180" height="60" as="geometry" />
        </mxCell>
        <mxCell id="PlpLMEIJnBUzuaVJZpVh-30" value="Coupon Management" style="rounded=0;whiteSpace=wrap;html=1;fillColor=#fff2cc;strokeColor=#d6b656;" parent="1" vertex="1">
          <mxGeometry x="50" y="660" width="180" height="60" as="geometry" />
        </mxCell>
        <mxCell id="PlpLMEIJnBUzuaVJZpVh-31" value="Shopping Cart" style="rounded=0;whiteSpace=wrap;html=1;fillColor=#fff2cc;strokeColor=#d6b656;" parent="1" vertex="1">
          <mxGeometry x="325" y="660" width="180" height="60" as="geometry" />
        </mxCell>
        <mxCell id="PlpLMEIJnBUzuaVJZpVh-32" value="Product Data" style="rounded=0;whiteSpace=wrap;html=1;fillColor=#fff2cc;strokeColor=#d6b656;" parent="1" vertex="1">
          <mxGeometry x="600" y="660" width="180" height="60" as="geometry" />
        </mxCell>
        <mxCell id="PlpLMEIJnBUzuaVJZpVh-44" value="" style="rounded=0;whiteSpace=wrap;html=1;fillColor=#f5f5f5;fontColor=#333333;strokeColor=#666666;" parent="1" vertex="1">
          <mxGeometry x="40" y="840" width="750" height="280" as="geometry" />
        </mxCell>
        <mxCell id="PlpLMEIJnBUzuaVJZpVh-46" value="&lt;span style=&quot;font-size: 15px;&quot;&gt;&lt;b&gt;Supporting Service&amp;nbsp;&lt;/b&gt;&lt;/span&gt;" style="rounded=0;whiteSpace=wrap;html=1;fillColor=#dae8fc;strokeColor=#6c8ebf;" parent="1" vertex="1">
          <mxGeometry x="50" y="850" width="730" height="60" as="geometry" />
        </mxCell>
        <mxCell id="PlpLMEIJnBUzuaVJZpVh-48" value="Security Service" style="rounded=0;whiteSpace=wrap;html=1;fillColor=#fff2cc;strokeColor=#d6b656;" parent="1" vertex="1">
          <mxGeometry x="50" y="930" width="180" height="60" as="geometry" />
        </mxCell>
        <mxCell id="PlpLMEIJnBUzuaVJZpVh-49" value="Monitoring Service" style="rounded=0;whiteSpace=wrap;html=1;fillColor=#fff2cc;strokeColor=#d6b656;" parent="1" vertex="1">
          <mxGeometry x="325" y="930" width="180" height="60" as="geometry" />
        </mxCell>
        <mxCell id="PlpLMEIJnBUzuaVJZpVh-50" value="Logging Service" style="rounded=0;whiteSpace=wrap;html=1;fillColor=#fff2cc;strokeColor=#d6b656;" parent="1" vertex="1">
          <mxGeometry x="600" y="930" width="180" height="60" as="geometry" />
        </mxCell>
        <mxCell id="PlpLMEIJnBUzuaVJZpVh-51" value="Cashing Service" style="rounded=0;whiteSpace=wrap;html=1;fillColor=#fff2cc;strokeColor=#d6b656;" parent="1" vertex="1">
          <mxGeometry x="50" y="1040" width="180" height="60" as="geometry" />
        </mxCell>
        <mxCell id="PlpLMEIJnBUzuaVJZpVh-52" value="Message Service" style="rounded=0;whiteSpace=wrap;html=1;fillColor=#fff2cc;strokeColor=#d6b656;" parent="1" vertex="1">
          <mxGeometry x="325" y="1040" width="180" height="60" as="geometry" />
        </mxCell>
        <mxCell id="PlpLMEIJnBUzuaVJZpVh-53" value="File Storage" style="rounded=0;whiteSpace=wrap;html=1;fillColor=#fff2cc;strokeColor=#d6b656;" parent="1" vertex="1">
          <mxGeometry x="600" y="1040" width="180" height="60" as="geometry" />
        </mxCell>
      </root>
    </mxGraphModel>
  </diagram>
</mxfile>
